<svg xmlns="http://www.w3.org/2000/svg" width="1280" height="1125" viewBox="0 0 1280 1125" version="1.1"><path d="M 81.991 444.250 C 81.983 862.189, 81.796 896.578, 79.416 916 C 77.463 931.950, 69.705 956.639, 61.518 972.964 C 52.653 990.640, 34.181 1013.756, 17.938 1027.500 C 5.081 1038.379, 4.460 1038.935, 5.123 1038.968 C 6.464 1039.036, 18.968 1028.427, 27.838 1019.694 C 50.260 997.620, 64.291 975.755, 72.882 949.500 C 77.468 935.485, 78.250 931.882, 81.994 907.523 C 82.540 903.969, 82.972 719.511, 83.060 452.523 C 83.151 177.505, 83.569 2.822, 84.139 1.750 C 84.837 0.439, 84.685 0, 83.535 0 C 82.157 0, 81.999 45.506, 81.991 444.250 M 181.996 452.750 C 182.010 754.249, 181.674 909.308, 180.991 916.899 C 180.427 923.169, 180.138 928.471, 180.349 928.683 C 180.903 929.237, 181.880 921.183, 182.989 906.923 C 184.349 889.422, 184.348 0, 182.987 0 C 182.305 0, 181.982 147.805, 181.996 452.750 M 392 476 L 392 952 677.615 952 L 963.230 952 961.516 949.384 C 958.205 944.331, 907.271 861.452, 904.899 857.258 L 902.500 853.015 698.500 853.253 L 494.500 853.490 697.667 853.995 C 809.408 854.273, 901.030 854.725, 901.271 855 C 901.951 855.777, 909.066 867.123, 913.500 874.501 C 915.700 878.162, 918.063 881.764, 918.750 882.507 C 919.438 883.250, 920 884.203, 920 884.625 C 920 885.047, 921.059 886.992, 922.353 888.946 C 923.647 890.901, 926.784 895.875, 929.324 900 C 931.865 904.125, 934.406 908.044, 934.972 908.708 C 935.537 909.372, 936 910.130, 936 910.391 C 936 910.985, 942.287 921.318, 943.063 922 C 943.376 922.275, 945.151 925.200, 947.007 928.500 C 948.863 931.800, 950.746 934.650, 951.191 934.833 C 951.636 935.017, 952 935.601, 952 936.132 C 952 936.663, 953.800 939.807, 956 943.119 C 958.200 946.431, 960 949.335, 960 949.571 C 960 949.807, 832.702 950, 677.117 950 L 394.233 950 393.712 947.276 C 393.426 945.778, 393.261 732.028, 393.346 472.276 C 393.431 212.524, 393.163 0, 392.750 0 C 392.337 0, 392 214.200, 392 476 M 492.750 272.250 C 492.888 421.987, 493.114 614.025, 493.253 699 C 493.393 783.975, 493.617 661.462, 493.753 426.750 C 493.889 192.038, 493.663 -0, 493.250 -0 C 492.837 -0, 492.613 122.512, 492.750 272.250 M 702 49.463 L 702 98.926 850.750 99.279 C 999.050 99.631, 999.535 99.639, 1010.923 101.827 C 1033.601 106.186, 1055.647 115.214, 1075.042 128.087 C 1087.304 136.224, 1108.277 157.093, 1116.664 169.500 C 1128.083 186.393, 1136.643 205.973, 1141.583 226.500 C 1143.461 234.304, 1143.867 235.292, 1143.431 231 C 1142.385 220.694, 1136.170 202.217, 1128.823 187.571 C 1120.999 171.974, 1112.381 160.149, 1099.613 147.492 C 1086.561 134.552, 1086.555 134.547, 1076.943 127.883 C 1064.080 118.966, 1047.498 110.361, 1039.465 108.435 C 1037.834 108.044, 1036.019 107.349, 1035.431 106.890 C 1034.843 106.431, 1031.364 105.360, 1027.700 104.510 C 1024.037 103.661, 1019.842 102.510, 1018.378 101.954 C 1016.915 101.397, 1009.369 100.185, 1001.609 99.259 C 989.134 97.771, 971.118 97.542, 846.053 97.278 C 734.873 97.043, 704.437 96.714, 703.818 95.740 C 702.448 93.582, 702.815 2.585, 704.200 1.200 C 705.133 0.267, 705.022 0, 703.700 0 C 702.123 0, 702 3.576, 702 49.463 M 990 1.016 C 988.964 1.674, 990.666 1.984, 995.500 2.016 C 1011.630 2.125, 1041.033 7.991, 1064.529 15.789 C 1131.835 38.125, 1191.176 88.844, 1220.972 149.500 C 1230.560 169.020, 1232.097 172.738, 1236.677 187.500 C 1242.129 205.072, 1242.651 207.229, 1245.633 224.500 C 1249.204 245.190, 1249.405 278.758, 1246.094 301.500 C 1240.942 336.879, 1230.675 367.291, 1214.192 396 C 1198.196 423.859, 1174.107 451.375, 1149.227 470.206 C 1134.517 481.340, 1116.358 492.439, 1101.500 499.377 C 1098.200 500.917, 1094.797 502.539, 1093.937 502.981 C 1090.643 504.672, 1076.793 510, 1075.674 510.006 C 1075.028 510.010, 1073.293 510.642, 1071.817 511.412 C 1070.342 512.182, 1067.642 513.129, 1065.817 513.518 C 1063.993 513.906, 1060.025 515.021, 1057 515.995 C 1049.728 518.337, 1035.249 521.612, 1026.320 522.934 C 1018.182 524.138, 1014 525.496, 1014 526.933 C 1014 527.725, 1023.545 543.546, 1033.220 558.790 C 1034.165 560.281, 1035.691 562.850, 1036.609 564.500 C 1037.528 566.150, 1038.583 567.725, 1038.956 568 C 1039.328 568.275, 1041.093 570.975, 1042.878 574 C 1047.723 582.211, 1050.017 585.972, 1053.554 591.500 C 1057.272 597.311, 1078.615 631.559, 1080.335 634.474 C 1080.976 635.560, 1083.188 639.079, 1085.250 642.295 C 1087.313 645.510, 1089 648.299, 1089 648.492 C 1089 648.686, 1090.912 651.768, 1093.250 655.343 C 1095.588 658.917, 1099.248 664.690, 1101.385 668.171 C 1103.521 671.652, 1106.956 677.200, 1109.018 680.500 C 1111.080 683.800, 1118.043 695.050, 1124.491 705.500 C 1130.938 715.950, 1137.227 726.075, 1138.466 728 C 1139.704 729.925, 1142.468 734.314, 1144.609 737.752 C 1153.355 751.805, 1160.362 762.960, 1165.495 771 C 1168.479 775.675, 1172.534 782.200, 1174.506 785.500 C 1176.477 788.800, 1179.307 793.412, 1180.795 795.749 C 1182.283 798.086, 1188.433 807.986, 1194.463 817.749 C 1205.828 836.152, 1209.404 841.797, 1210.779 843.500 C 1211.223 844.050, 1213.057 846.975, 1214.854 850 C 1219.920 858.523, 1222.095 862.090, 1225.527 867.500 C 1227.272 870.250, 1232.194 878.125, 1236.465 885 C 1240.736 891.875, 1245.250 899.075, 1246.495 901 C 1248.617 904.279, 1261.699 925.199, 1269.862 938.368 C 1271.863 941.595, 1274.336 945.195, 1275.359 946.368 L 1277.217 948.500 1275.757 946 C 1273.292 941.779, 1259.119 918.810, 1241.822 891 C 1232.756 876.425, 1210.792 841.100, 1193.013 812.500 C 1175.234 783.900, 1144.274 734.189, 1124.212 702.030 C 1104.150 669.872, 1077.385 626.897, 1064.734 606.530 C 1052.083 586.164, 1035.697 559.883, 1028.321 548.129 C 1020.945 536.374, 1015.042 526.639, 1015.205 526.494 C 1015.367 526.349, 1020.225 525.449, 1026 524.494 C 1072.875 516.744, 1118.063 497.284, 1152 470.232 C 1213.387 421.300, 1246.597 353.879, 1249.645 272 C 1252.277 201.274, 1225.128 133.261, 1173.756 81.889 C 1129.276 37.409, 1069.909 8.650, 1009 2.077 C 1003.225 1.453, 996.925 0.745, 995 0.503 C 993.075 0.261, 990.825 0.492, 990 1.016 M 1144.817 246.500 C 1145.671 259.002, 1145.676 265.824, 1144.841 278.500 C 1144.364 285.756, 1144.458 287.677, 1145.186 285.500 C 1146.523 281.504, 1146.514 243.349, 1145.176 239.500 C 1144.396 237.257, 1144.306 239.022, 1144.817 246.500 M 1140.157 304.761 C 1135.806 322.844, 1126.643 343.383, 1115.988 358.937 C 1094.208 390.731, 1060.501 414.598, 1024.031 424.052 C 1002.653 429.593, 1011.396 429.309, 850.250 429.703 L 701 430.068 701 479.534 L 701 529 804.250 529.046 L 907.500 529.093 919.119 547.796 C 933.074 570.259, 997.192 673.081, 1057.682 770 C 1081.883 808.775, 1117.336 865.587, 1136.467 896.250 L 1171.252 952 1225.126 952 C 1254.757 952, 1279 951.625, 1279 951.167 C 1279 949.724, 1277.728 948.987, 1276.592 949.771 C 1275.991 950.186, 1252.100 950.370, 1223.500 950.180 L 1171.500 949.836 1167.500 943.315 C 1165.300 939.728, 1162.585 935.378, 1161.466 933.647 C 1160.348 931.916, 1155.173 923.622, 1149.966 915.216 C 1144.760 906.809, 1137.022 894.434, 1132.771 887.716 C 1128.519 880.997, 1124.112 873.925, 1122.976 872 C 1121.840 870.075, 1119.018 865.479, 1116.705 861.788 C 1104.599 842.464, 1100.407 835.739, 1099.500 834.185 C 1097.265 830.356, 1093.512 824.438, 1092.722 823.500 C 1091.865 822.481, 1087.999 816.269, 1081.520 805.500 C 1079.534 802.200, 1076.693 797.601, 1075.205 795.279 C 1072.678 791.335, 1062.385 774.915, 1059.701 770.545 C 1059.040 769.470, 1056.202 764.970, 1053.393 760.545 C 1050.583 756.120, 1047.534 751.150, 1046.616 749.500 C 1045.698 747.850, 1043.184 743.800, 1041.028 740.500 C 1038.872 737.200, 1035.489 731.800, 1033.509 728.500 C 1031.529 725.200, 1028.693 720.592, 1027.205 718.260 C 1024.371 713.819, 1001.242 676.791, 993 663.500 C 991.295 660.750, 987.917 655.350, 985.494 651.500 C 983.071 647.650, 980.158 642.925, 979.020 641 C 977.883 639.075, 975.187 634.800, 973.030 631.500 C 970.873 628.200, 968.020 623.700, 966.690 621.500 C 965.360 619.300, 962.523 614.689, 960.386 611.253 C 958.249 607.817, 954.700 602.090, 952.500 598.526 C 940.180 578.566, 937.505 574.377, 936.313 573.179 C 935.591 572.452, 935 571.459, 935 570.973 C 935 570.173, 931.221 563.978, 929.221 561.500 C 928.777 560.950, 926.957 558.025, 925.176 555 C 923.395 551.975, 919.923 546.350, 917.461 542.500 C 914.999 538.650, 912.109 533.870, 911.038 531.878 C 909.967 529.887, 908.058 527.980, 906.795 527.642 C 905.533 527.304, 858.938 527.021, 803.250 527.014 L 702 527 702 479.045 L 702 431.090 852.750 430.691 C 952.233 430.427, 1005.030 429.938, 1008 429.251 C 1034.882 423.033, 1040.092 421.264, 1057.500 412.444 C 1069.383 406.423, 1078.907 399.971, 1088.624 391.360 C 1114.977 368.004, 1129.503 344.984, 1140.432 309.256 C 1142.053 303.958, 1143.598 294.990, 1142.886 295.011 C 1142.674 295.018, 1141.446 299.405, 1140.157 304.761 M 178.703 932.500 C 178.336 934.150, 177.558 938.603, 176.975 942.395 C 176.392 946.187, 175.544 950.012, 175.089 950.895 C 174.635 951.778, 173.952 954.300, 173.572 956.500 C 172.519 962.598, 169.555 971.660, 162.450 990.500 C 153.642 1013.855, 136.992 1042.136, 118.366 1065.375 C 108.904 1077.181, 90.225 1095.758, 77 1106.516 C 61.124 1119.431, 59.654 1120.761, 66.142 1116.342 C 84.181 1104.056, 110.715 1078.222, 125.410 1058.636 C 145.817 1031.440, 159.156 1005.842, 170.035 973 C 174.955 958.150, 180.474 934.493, 179.767 931.290 C 179.491 930.042, 179.169 930.409, 178.703 932.500 M 2.016 1040.481 C 0.515 1042.289, -0.574 1040.377, 26.561 1083.572 C 37.938 1101.682, 48.425 1118.412, 49.866 1120.750 C 52.802 1125.514, 52.869 1125.547, 55.540 1123.595 C 57.356 1122.266, 57.323 1122.216, 54.933 1122.672 C 52.660 1123.107, 51.864 1122.265, 47.049 1114.328 C 44.103 1109.473, 40.249 1103.250, 38.484 1100.500 C 36.719 1097.750, 30.404 1087.625, 24.450 1078 C 18.496 1068.375, 11.210 1056.675, 8.258 1052 C 4.702 1046.367, 3.032 1042.741, 3.307 1041.250 C 3.797 1038.600, 3.650 1038.512, 2.016 1040.481" stroke="none" fill="#060506" fill-rule="evenodd"/><path d="M 84.139 1.750 C 83.569 2.822, 83.151 177.505, 83.060 452.523 C 82.972 719.511, 82.540 903.969, 81.994 907.523 C 78.250 931.882, 77.468 935.485, 72.882 949.500 C 64.291 975.755, 50.260 997.620, 27.838 1019.694 C 18.968 1028.427, 6.464 1039.036, 5.123 1038.968 C 4.460 1038.935, 5.081 1038.379, 17.938 1027.500 C 31.564 1015.971, 52.416 991.007, 58.577 978.847 C 61.747 972.591, 60.828 972.508, 57.507 978.750 C 49.486 993.825, 28.088 1018.364, 11.356 1031.676 C 0.736 1040.125, 0.728 1039.988, 12.919 1059.500 C 18.073 1067.750, 25.208 1079.225, 28.774 1085 C 32.339 1090.775, 36.278 1097.075, 37.526 1099 C 41.261 1104.761, 49.594 1118.338, 50.875 1120.750 C 53.335 1125.382, 51.189 1122.748, 46.598 1115.500 C 43.985 1111.375, 41.620 1108, 41.342 1108 C 40.779 1108, 43.895 1113.322, 48.182 1119.680 C 50.849 1123.637, 51.174 1123.812, 54.250 1122.962 C 57.239 1122.137, 57.344 1122.182, 55.559 1123.532 C 54.425 1124.390, 54.153 1125, 54.904 1125 C 56.704 1125, 62.123 1121.009, 61.561 1120.098 C 61.306 1119.686, 66.126 1115.333, 72.272 1110.425 C 78.418 1105.516, 86.283 1098.850, 89.750 1095.610 C 93.217 1092.371, 96.282 1089.949, 96.562 1090.228 C 97.559 1091.226, 69.725 1114.936, 63.892 1118.058 C 62.757 1118.665, 62.061 1119.394, 62.345 1119.679 C 62.950 1120.284, 76.615 1110.019, 85.980 1101.925 C 94.548 1094.519, 107.654 1081.368, 114.143 1073.664 C 116.999 1070.274, 114.479 1072.582, 108.545 1078.794 C 102.610 1085.005, 97.496 1089.829, 97.180 1089.513 C 96.864 1089.197, 100.224 1085.240, 104.647 1080.719 C 112.653 1072.537, 121.846 1061.570, 127.883 1053 C 134.049 1044.248, 141.837 1032.259, 145.019 1026.620 C 146.792 1023.479, 148.467 1021.134, 148.742 1021.409 C 149.017 1021.684, 147.809 1024.449, 146.057 1027.553 C 144.305 1030.658, 143.360 1032.895, 143.958 1032.526 C 144.556 1032.157, 146.414 1029.143, 148.087 1025.828 C 149.760 1022.514, 150.650 1020.099, 150.064 1020.460 C 148.247 1021.583, 148.829 1019.991, 154.405 1008.570 C 159.327 998.489, 161.464 993.358, 166.928 978.500 C 169.987 970.183, 172.841 960.732, 173.572 956.500 C 173.952 954.300, 174.630 951.787, 175.078 950.917 C 175.526 950.046, 176.564 945.161, 177.385 940.061 C 178.884 930.748, 179.945 927.586, 180.063 932.083 L 180.127 934.500 181.043 932.219 C 181.546 930.965, 182.196 926.240, 182.486 921.719 C 183.106 912.071, 182.444 912.475, 181.487 922.329 C 181.122 926.084, 180.631 928.964, 180.394 928.728 C 180.158 928.492, 180.427 923.169, 180.991 916.899 C 181.674 909.310, 182.012 754.602, 182.002 454 C 181.994 205.675, 181.990 1.938, 181.994 1.250 C 181.999 0.267, 171.644 0, 133.535 0 C 88.400 0, 85.006 0.120, 84.139 1.750 M 393.651 3.241 C 392.938 7.286, 393.003 943.563, 393.716 947.297 L 394.233 950 677.117 950 C 832.702 950, 960 949.807, 960 949.571 C 960 949.335, 958.200 946.431, 956 943.119 C 953.800 939.807, 952.009 936.513, 952.020 935.799 C 952.031 935.084, 954.497 938.325, 957.500 943 C 960.503 947.675, 962.969 950.998, 962.980 950.385 C 962.991 949.772, 962.177 948.197, 961.172 946.885 C 960.166 945.573, 955.369 937.975, 950.511 930 C 945.653 922.025, 941.024 914.825, 940.224 914 C 939.424 913.175, 939.979 914.455, 941.457 916.844 C 942.935 919.234, 943.887 921.446, 943.572 921.761 C 943.257 922.076, 942.871 922.146, 942.714 921.917 C 937.974 915.006, 933.857 905.943, 937.555 910.559 C 939.054 912.429, 939.071 912.419, 938.040 910.287 C 937.382 908.927, 936.398 908.294, 935.485 908.644 C 934.668 908.958, 934 908.795, 934 908.284 C 934 907.430, 928.049 897.550, 922.353 888.946 C 919.673 884.899, 919.041 881.420, 921.555 884.559 C 923.054 886.429, 923.071 886.419, 922.040 884.287 C 921.382 882.927, 920.398 882.294, 919.485 882.644 C 918.668 882.958, 918 882.815, 918 882.327 C 918 881.839, 916.087 878.421, 913.750 874.732 C 911.413 871.043, 907.925 865.478, 906 862.366 C 904.075 859.254, 902.179 856.211, 901.787 855.604 C 901.272 854.807, 844.478 854.359, 697.787 853.995 L 494.500 853.490 698.500 852.999 L 902.500 852.507 699 852.004 L 495.500 851.500 494.998 426 L 494.497 0.500 494 427 L 493.503 853.500 493.002 427 L 492.500 0.500 443.363 0.241 L 394.226 -0.019 393.651 3.241 M 704.200 1.200 C 702.815 2.585, 702.448 93.582, 703.818 95.740 C 704.437 96.714, 734.873 97.043, 846.053 97.278 C 971.118 97.542, 989.134 97.771, 1001.609 99.259 C 1009.369 100.185, 1016.915 101.397, 1018.378 101.954 C 1019.842 102.510, 1024.037 103.661, 1027.700 104.510 C 1031.364 105.360, 1034.843 106.431, 1035.431 106.890 C 1036.019 107.349, 1037.834 108.044, 1039.465 108.435 C 1048.557 110.615, 1077.281 126, 1072.259 126 C 1071.787 126, 1070.973 125.622, 1070.450 125.160 C 1069.928 124.698, 1067.700 123.322, 1065.500 122.102 C 1063.003 120.718, 1062.407 120.564, 1063.915 121.692 C 1068.113 124.835, 1074.327 128.338, 1073.590 127.145 C 1072.409 125.235, 1074.416 125.856, 1078.024 128.517 C 1079.900 129.902, 1082.800 132.016, 1084.468 133.215 C 1086.136 134.414, 1092.951 140.819, 1099.613 147.447 C 1112.372 160.142, 1121.030 172.035, 1128.823 187.571 C 1136.170 202.217, 1142.385 220.694, 1143.431 231 C 1143.869 235.321, 1143.469 234.356, 1141.566 226.500 C 1138.064 212.052, 1129.626 189.041, 1128.311 190.356 C 1128.093 190.574, 1129.083 193.309, 1130.513 196.434 C 1134.704 205.598, 1139.590 221.744, 1141.420 232.479 C 1143.266 243.308, 1143.952 245.223, 1144.086 239.917 L 1144.172 236.500 1145.173 239.500 C 1146.444 243.311, 1146.733 276.864, 1145.551 283.500 C 1144.722 288.159, 1144.618 288.296, 1144.024 285.500 C 1143.469 282.890, 1143.236 283.344, 1142.226 289 C 1141.588 292.575, 1140.842 297.525, 1140.569 300 L 1140.071 304.500 1141.525 299.500 L 1142.979 294.500 1142.508 299.256 C 1141.849 305.907, 1137.127 320.992, 1132.258 332 C 1121.376 356.605, 1109.294 373.040, 1088.624 391.360 C 1078.907 399.971, 1069.383 406.423, 1057.500 412.444 C 1040.092 421.264, 1034.882 423.033, 1008 429.251 C 1005.030 429.938, 952.233 430.427, 852.750 430.691 L 702 431.090 702 479.045 L 702 527 803.250 527.014 C 858.938 527.021, 905.533 527.304, 906.795 527.642 C 908.058 527.980, 909.967 529.887, 911.038 531.878 C 912.109 533.870, 914.999 538.650, 917.461 542.500 C 927.089 557.557, 930.858 564.961, 925.859 559 L 923.763 556.500 925.239 559 C 929.626 566.431, 933.227 572, 933.645 572 C 934.155 572, 933.896 571.516, 930.248 565.656 C 928.932 563.541, 928.175 561.516, 928.565 561.156 C 928.955 560.795, 929.470 561.048, 929.709 561.717 C 929.949 562.386, 931.192 564.478, 932.472 566.364 C 935.428 570.719, 936.763 574.590, 934.916 573.448 C 933.459 572.548, 937.502 579.672, 939.769 582 C 940.573 582.825, 940.021 581.545, 938.543 579.156 C 937.065 576.766, 936.175 574.516, 936.565 574.156 C 936.955 573.795, 937.454 573.950, 937.675 574.500 C 937.895 575.050, 940.515 579.325, 943.496 584 C 946.477 588.675, 950.519 595.200, 952.478 598.500 C 954.437 601.800, 958.059 607.650, 960.528 611.500 C 962.996 615.350, 965.923 620.075, 967.032 622 C 968.141 623.925, 970.826 628.200, 973 631.500 C 975.174 634.800, 977.883 639.075, 979.020 641 C 980.158 642.925, 983.071 647.650, 985.494 651.500 C 987.917 655.350, 991.295 660.750, 993 663.500 C 1001.242 676.791, 1024.371 713.819, 1027.205 718.260 C 1028.693 720.592, 1031.529 725.200, 1033.509 728.500 C 1035.489 731.800, 1038.872 737.200, 1041.028 740.500 C 1043.184 743.800, 1045.698 747.850, 1046.616 749.500 C 1047.534 751.150, 1050.696 756.208, 1053.643 760.741 C 1058.879 768.796, 1060.204 771.862, 1057.809 770.382 C 1056.430 769.529, 1060.596 776.769, 1062.769 779 C 1063.573 779.825, 1063.053 778.596, 1061.615 776.270 C 1058.901 771.880, 1058.403 770.513, 1059.841 771.402 C 1060.837 772.017, 1071 788.438, 1071 789.433 C 1071 789.810, 1070.505 789.812, 1069.900 789.438 C 1069.127 788.961, 1069.138 789.389, 1069.935 790.879 C 1071.283 793.397, 1072.208 793.707, 1071.299 791.336 C 1070.159 788.365, 1072.901 790.905, 1075.059 794.818 C 1076.176 796.843, 1079.071 801.650, 1081.494 805.500 C 1091.478 821.366, 1093.345 824.949, 1090.809 823.382 C 1089.430 822.529, 1093.596 829.769, 1095.769 832 C 1096.573 832.825, 1096.021 831.545, 1094.543 829.156 C 1093.065 826.766, 1092.113 824.554, 1092.428 824.239 C 1092.743 823.924, 1093.131 823.854, 1093.292 824.083 C 1098.117 830.978, 1100.323 835.936, 1097.900 834.438 C 1097.127 833.961, 1097.138 834.389, 1097.935 835.879 C 1099.283 838.397, 1100.208 838.707, 1099.299 836.336 C 1097.785 832.390, 1101.151 836.607, 1106.630 845.517 C 1109.858 850.768, 1113.945 857.412, 1115.711 860.282 C 1119.088 865.770, 1119.728 867.568, 1117.900 866.438 C 1117.127 865.961, 1117.138 866.389, 1117.935 867.879 C 1119.283 870.397, 1120.208 870.707, 1119.299 868.336 C 1118.152 865.347, 1120.909 867.917, 1123.035 871.818 C 1124.138 873.843, 1128.519 880.997, 1132.771 887.716 C 1137.022 894.434, 1144.760 906.809, 1149.966 915.216 C 1155.173 923.622, 1160.348 931.916, 1161.466 933.647 C 1162.585 935.378, 1165.300 939.728, 1167.500 943.315 L 1171.500 949.836 1223.500 950.180 C 1252.100 950.370, 1276.026 950.157, 1276.669 949.707 C 1277.387 949.205, 1278.245 949.587, 1278.889 950.695 C 1279.467 951.688, 1279.953 951.946, 1279.970 951.269 C 1279.986 950.592, 1277.826 946.767, 1275.169 942.769 C 1272.513 938.771, 1267.225 930.429, 1263.419 924.230 C 1250.677 903.476, 1249.340 901.500, 1248.048 901.500 C 1246.956 901.500, 1239.102 889.575, 1224.770 866.157 C 1222.971 863.219, 1220.541 859.340, 1219.368 857.537 C 1215.843 852.118, 1212 845.371, 1212 844.603 C 1212 844.206, 1212.536 844.213, 1213.191 844.618 C 1214.570 845.471, 1210.404 838.231, 1208.231 836 C 1207.427 835.175, 1207.979 836.455, 1209.457 838.844 C 1210.935 841.234, 1211.825 843.484, 1211.435 843.844 C 1211.045 844.205, 1210.530 843.952, 1210.291 843.283 C 1210.051 842.614, 1208.858 840.589, 1207.640 838.783 C 1206.422 836.977, 1200.492 827.512, 1194.463 817.749 C 1188.433 807.986, 1182.283 798.086, 1180.795 795.749 C 1179.307 793.412, 1176.477 788.800, 1174.506 785.500 C 1172.534 782.200, 1168.479 775.675, 1165.495 771 C 1160.362 762.960, 1153.355 751.805, 1144.609 737.752 C 1142.468 734.314, 1139.704 729.925, 1138.466 728 C 1137.227 726.075, 1130.938 715.950, 1124.491 705.500 C 1111.659 684.704, 1106.318 676.120, 1101.467 668.500 C 1096.176 660.186, 1094.851 657.172, 1097.100 658.562 C 1097.873 659.039, 1097.862 658.611, 1097.065 657.121 C 1095.763 654.690, 1094.779 654.261, 1095.638 656.500 C 1096.733 659.353, 1095.130 657.982, 1092.071 653.450 C 1090.382 650.947, 1089 648.729, 1089 648.521 C 1089 648.312, 1087.200 645.431, 1085 642.119 C 1081.072 636.206, 1079.926 633.218, 1082.100 634.562 C 1082.873 635.039, 1082.862 634.611, 1082.065 633.121 C 1080.692 630.556, 1079.827 630.325, 1080.673 632.750 C 1082.081 636.784, 1077.947 630.887, 1067.531 614 C 1061.594 604.375, 1055.300 594.250, 1053.546 591.500 C 1049.995 585.935, 1047.671 582.124, 1042.878 574 C 1041.093 570.975, 1039.328 568.275, 1038.956 568 C 1038.583 567.725, 1037.528 566.150, 1036.609 564.500 C 1035.691 562.850, 1034.165 560.281, 1033.220 558.790 C 1023.545 543.546, 1014 527.725, 1014 526.933 C 1014 525.496, 1018.182 524.138, 1026.320 522.934 C 1035.249 521.612, 1049.728 518.337, 1057 515.995 C 1060.025 515.021, 1063.993 513.906, 1065.817 513.518 C 1067.642 513.129, 1070.342 512.182, 1071.817 511.412 C 1073.293 510.642, 1075.028 510.010, 1075.674 510.006 C 1076.793 510, 1090.643 504.672, 1093.937 502.981 C 1094.797 502.539, 1098.200 500.917, 1101.500 499.377 C 1116.358 492.439, 1134.517 481.340, 1149.227 470.206 C 1158.547 463.152, 1162.065 460.006, 1174.576 447.538 C 1204.164 418.052, 1225.806 381.562, 1237.467 341.500 C 1245.578 313.632, 1248.287 293.915, 1248.250 263 C 1248.225 242.326, 1247.911 237.696, 1245.633 224.500 C 1242.651 207.229, 1242.129 205.072, 1236.677 187.500 C 1224.866 149.433, 1200.729 110.069, 1172.236 82.406 C 1170.441 80.663, 1169.160 78.621, 1169.390 77.869 C 1169.620 77.116, 1167.714 74.718, 1165.154 72.541 L 1160.500 68.581 1164.958 73.291 C 1167.410 75.881, 1169.128 78, 1168.775 78 C 1168.423 78, 1164.310 74.666, 1159.636 70.590 C 1118.088 34.364, 1068.978 11.904, 1013 3.525 C 1008.325 2.825, 1005.850 2.205, 1007.500 2.147 C 1010.204 2.051, 1014.054 2.509, 1026.500 4.406 C 1029.281 4.830, 1028.519 4.404, 1024 3.006 C 1018.293 1.242, 1015.732 1.066, 1003 1.568 C 992.697 1.974, 988.934 1.834, 990 1.085 C 991.055 0.344, 949.030 0.026, 848.450 0.015 C 738.505 0.004, 705.122 0.278, 704.200 1.200 M 81.496 447 C 81.496 692.575, 81.610 793.037, 81.750 670.250 C 81.890 547.462, 81.890 346.537, 81.750 223.750 C 81.610 100.962, 81.496 201.425, 81.496 447 M 391.496 476 C 391.496 737.525, 391.610 844.512, 391.750 713.750 C 391.890 582.987, 391.890 369.012, 391.750 238.250 C 391.610 107.487, 391.496 214.475, 391.496 476 M 701.463 50 C 701.463 77.225, 701.592 88.362, 701.749 74.750 C 701.906 61.137, 701.906 38.862, 701.749 25.250 C 701.592 11.637, 701.463 22.775, 701.463 50 M 184.486 146.500 C 184.486 222.950, 184.605 254.077, 184.750 215.672 C 184.895 177.266, 184.895 114.716, 184.750 76.672 C 184.605 38.627, 184.486 70.050, 184.486 146.500 M 1089.083 23.386 C 1090.100 24.327, 1112 34.964, 1112 34.517 C 1112 33.963, 1090.439 23, 1089.350 23 C 1088.974 23, 1088.854 23.174, 1089.083 23.386 M 1145 56.252 C 1145 56.466, 1148.037 59, 1151.750 61.884 C 1155.481 64.781, 1156.711 65.491, 1154.500 63.471 C 1150.267 59.603, 1145 55.600, 1145 56.252 M 1193.452 103.750 C 1196.644 107.737, 1199.449 111, 1199.686 111 C 1200.378 111, 1191.373 99.553, 1189.424 97.955 C 1188.448 97.155, 1190.261 99.763, 1193.452 103.750 M 851 100.108 C 932.125 100.486, 1000.750 101.037, 1003.500 101.333 L 1008.500 101.870 1004 100.796 C 1000.913 100.059, 953.029 99.674, 851.500 99.572 L 703.500 99.422 851 100.108 M 1019 104.354 C 1020.925 105.095, 1024.300 105.970, 1026.500 106.298 L 1030.500 106.893 1026.478 105.576 C 1024.267 104.852, 1020.892 103.977, 1018.978 103.632 L 1015.500 103.006 1019 104.354 M 1075 128.393 C 1075 128.677, 1078.487 131.566, 1082.750 134.813 C 1097.808 146.282, 1113.950 165.022, 1123.180 181.750 C 1127.809 190.139, 1129.281 191.474, 1125.386 183.750 C 1119.630 172.338, 1110.398 160.318, 1097.540 147.498 C 1086.300 136.290, 1075 126.712, 1075 128.393 M 1212.813 131.250 C 1213.900 133.037, 1215.735 136.075, 1216.891 138 C 1218.047 139.925, 1218.994 141.109, 1218.996 140.631 C 1219.001 139.520, 1212.024 128, 1211.346 128 C 1211.066 128, 1211.726 129.463, 1212.813 131.250 M 1224.116 152.209 C 1227.030 158.099, 1229.582 162.752, 1229.785 162.548 C 1230.250 162.084, 1221.194 143.858, 1219.824 142.500 C 1219.270 141.950, 1221.201 146.319, 1224.116 152.209 M 1239.117 189 C 1239.091 189.275, 1239.958 192.425, 1241.043 196 C 1242.377 200.395, 1242.824 201.215, 1242.422 198.531 C 1241.917 195.164, 1239.257 187.491, 1239.117 189 M 1244.107 208 C 1244.096 208.825, 1244.733 212.200, 1245.522 215.500 L 1246.957 221.500 1246.443 216.241 C 1245.952 211.220, 1244.148 204.857, 1244.107 208 M 1248.825 238 C 1249.682 250.056, 1249.694 275.377, 1248.849 289 C 1248.332 297.335, 1248.410 298.572, 1249.228 295 C 1250.569 289.138, 1250.523 236.623, 1249.172 232 C 1248.397 229.348, 1248.313 230.803, 1248.825 238 M 1144.277 263 C 1144.278 280.821, 1144.350 281.630, 1145.112 272.399 C 1145.570 266.843, 1145.569 258.068, 1145.110 252.899 C 1144.371 244.579, 1144.275 245.739, 1144.277 263 M 1137.475 310.643 C 1136.571 313.864, 1134.954 318.922, 1133.881 321.882 C 1132.808 324.841, 1132.117 327.450, 1132.346 327.679 C 1132.575 327.908, 1133.914 324.812, 1135.321 320.798 C 1139.148 309.886, 1140.258 305.925, 1139.659 305.326 C 1139.362 305.028, 1138.379 307.421, 1137.475 310.643 M 1126.242 339.295 C 1116.986 357.916, 1107.220 370.927, 1090.762 386.564 C 1085.118 391.926, 1081.796 395.344, 1083.380 394.161 C 1093.050 386.932, 1107.517 371.302, 1116.005 358.912 C 1121.666 350.648, 1132.562 330.229, 1131.747 329.413 C 1131.529 329.196, 1129.052 333.642, 1126.242 339.295 M 184.482 436 C 184.482 494.025, 184.602 517.762, 184.750 488.750 C 184.897 459.737, 184.897 412.262, 184.750 383.250 C 184.602 354.237, 184.482 377.975, 184.482 436 M 1017.170 424.675 C 1013.689 425.499, 1011.035 426.368, 1011.273 426.607 C 1011.733 427.066, 1025.197 424.136, 1025.912 423.421 C 1026.630 422.703, 1023.760 423.115, 1017.170 424.675 M 844.500 428.995 L 700.500 429.500 700.486 479 L 700.472 528.500 700.745 479.250 L 701.019 430 844.759 429.883 C 923.817 429.819, 991.425 429.437, 995 429.036 L 1001.500 428.305 995 428.397 C 991.425 428.448, 923.700 428.717, 844.500 428.995 M 1175.483 449.250 L 1164.500 460.500 1175.750 449.517 C 1181.938 443.476, 1187 438.414, 1187 438.267 C 1187 437.546, 1185.684 438.801, 1175.483 449.250 M 751.174 529.750 C 777.945 529.898, 822.045 529.898, 849.174 529.750 C 876.303 529.602, 854.400 529.481, 800.500 529.481 C 746.600 529.481, 724.403 529.602, 751.174 529.750 M 184.488 739.500 C 184.487 824.750, 184.606 859.773, 184.750 817.329 C 184.894 774.884, 184.894 705.134, 184.750 662.329 C 184.606 619.523, 184.488 654.250, 184.488 739.500 M 973.228 636.250 C 974.030 637.487, 976.597 641.538, 978.932 645.250 C 981.268 648.962, 983.416 652, 983.705 652 C 983.994 652, 983.574 650.987, 982.772 649.750 C 981.970 648.513, 979.403 644.462, 977.068 640.750 C 974.732 637.038, 972.584 634, 972.295 634 C 972.006 634, 972.426 635.013, 973.228 636.250 M 1220.110 856.250 C 1225.390 864.751, 1229.164 869.619, 1224.956 862.500 C 1220.520 854.996, 1215.939 848, 1215.462 848 C 1215.201 848, 1217.292 851.712, 1220.110 856.250 M 924.453 889.414 C 925.447 891.016, 927.146 893.829, 928.229 895.664 C 929.312 897.499, 930.421 899, 930.694 899 C 931.450 899, 925.960 889.707, 924.195 888 C 923.085 886.926, 923.158 887.327, 924.453 889.414 M 183.336 906 C 183.336 910.125, 183.513 911.813, 183.728 909.750 C 183.944 907.688, 183.944 904.313, 183.728 902.250 C 183.513 900.188, 183.336 901.875, 183.336 906 M 1248.002 902.750 C 1248.003 903.163, 1251.962 909.800, 1256.798 917.500 C 1261.635 925.200, 1267.371 934.365, 1269.546 937.868 C 1273.086 943.568, 1277.891 950.058, 1276.678 947.500 C 1276.417 946.950, 1271.597 939.075, 1265.967 930 C 1260.336 920.925, 1254.163 910.913, 1252.248 907.750 C 1248.890 902.204, 1247.997 901.153, 1248.002 902.750 M 78.646 913.250 C 78.329 915.038, 77.839 918.975, 77.556 922 C 77.128 926.590, 77.193 926.921, 77.952 924 C 79.074 919.677, 80.255 910, 79.660 910 C 79.419 910, 78.963 911.462, 78.646 913.250 M 944.021 922.378 C 944.004 923.100, 949.503 933.481, 950.663 934.917 C 950.848 935.146, 951.261 935.073, 951.580 934.754 C 951.898 934.435, 950.333 931.322, 948.101 927.837 C 945.868 924.352, 944.033 921.895, 944.021 922.378 M 1153.621 925.250 C 1158.021 932.693, 1167.279 947, 1167.696 947 C 1167.990 947, 1167.568 945.987, 1166.760 944.750 C 1165.951 943.513, 1162.704 938.337, 1159.544 933.250 C 1156.384 928.163, 1153.592 924, 1153.340 924 C 1153.088 924, 1153.215 924.563, 1153.621 925.250 M 178.030 943.244 C 177.318 947.235, 176.529 951.175, 176.274 952 C 175.869 953.313, 175.941 953.316, 176.853 952.026 C 177.995 950.410, 180.471 937.138, 179.763 936.429 C 179.520 936.187, 178.741 939.254, 178.030 943.244 M 171.125 969.733 C 166.464 984.656, 166.693 983.797, 167.846 982 C 169.305 979.726, 175.200 961.100, 174.821 959.962 C 174.638 959.415, 172.975 963.812, 171.125 969.733 M 165.228 986.699 C 164.676 988.240, 163.241 991.975, 162.040 995 C 160.840 998.025, 160.293 1000.050, 160.827 999.500 C 162.186 998.099, 167.298 984.965, 166.712 984.379 C 166.448 984.114, 165.780 985.158, 165.228 986.699 M 139.405 1038.573 C 137.931 1041.088, 133.630 1047.419, 129.847 1052.641 C 126.064 1057.864, 123.424 1061.856, 123.979 1061.513 C 126.158 1060.166, 143.890 1034, 142.624 1034 C 142.327 1034, 140.878 1036.058, 139.405 1038.573 M 1.030 1043.376 C 0.991 1044.518, 11.040 1060.907, 12.231 1061.643 C 12.733 1061.953, 10.938 1058.673, 8.242 1054.353 C 5.546 1050.034, 2.828 1045.600, 2.201 1044.500 C 1.574 1043.400, 1.047 1042.894, 1.030 1043.376 M 15.532 1067.750 C 17.029 1070.362, 18.952 1073.175, 19.805 1074 C 20.915 1075.074, 20.842 1074.673, 19.547 1072.586 C 18.553 1070.984, 16.854 1068.171, 15.771 1066.336 C 14.688 1064.501, 13.579 1063, 13.306 1063 C 13.033 1063, 14.035 1065.138, 15.532 1067.750 M 21.600 1077.250 C 25.783 1084.533, 38.664 1104.840, 39.838 1106 C 41.586 1107.728, 42.557 1109.395, 30.078 1089.250 C 25.563 1081.963, 21.647 1076, 21.376 1076 C 21.104 1076, 21.205 1076.563, 21.600 1077.250" stroke="none" fill="#231b1b" fill-rule="evenodd"/></svg>