<svg xmlns="http://www.w3.org/2000/svg" width="1206" height="1061" viewBox="0 0 1206 1061" version="1.1"><path d="M 932.750 0.732 C 935.087 0.943, 938.913 0.943, 941.250 0.732 C 943.587 0.522, 941.675 0.349, 937 0.349 C 932.325 0.349, 930.413 0.522, 932.750 0.732 M 958 2.937 C 964.325 3.902, 971.075 4.973, 973 5.317 C 976.225 5.892, 974.166 5.163, 963.429 1.926 C 961.740 1.417, 957.240 1.041, 953.429 1.091 L 946.500 1.181 958 2.937 M 988.471 9.036 C 992.305 10.056, 995.612 10.721, 995.820 10.514 C 996.406 9.927, 985.891 6.989, 983.568 7.090 C 982.431 7.140, 984.637 8.015, 988.471 9.036 M 1020.897 20.094 C 1024.416 21.714, 1027.462 22.871, 1027.668 22.665 C 1028.124 22.210, 1016.604 16.970, 1015.375 17.074 C 1014.894 17.115, 1017.379 18.474, 1020.897 20.094 M 1029.083 23.385 C 1030.101 24.323, 1048 32.968, 1048 32.520 C 1048 31.965, 1030.441 23, 1029.353 23 C 1028.976 23, 1028.854 23.173, 1029.083 23.385 M 1059 39.294 C 1059 39.521, 1062.150 41.801, 1066 44.361 C 1069.850 46.921, 1073 48.804, 1073 48.545 C 1073 48.286, 1070.412 46.336, 1067.250 44.211 C 1060.247 39.506, 1059 38.763, 1059 39.294 M 1074.500 49.683 C 1076.530 51.861, 1092.219 64.114, 1092.552 63.782 C 1092.741 63.592, 1090.332 61.393, 1087.198 58.894 C 1080.410 53.482, 1073.095 48.176, 1074.500 49.683 M 1106.547 78.019 C 1120.724 92.668, 1129.306 103.254, 1138.959 118 C 1145.495 127.985, 1147.124 130.151, 1144.979 126 C 1137.197 110.947, 1114.896 83.500, 1099 69.413 C 1095.975 66.732, 1099.371 70.605, 1106.547 78.019 M 1034.017 139.426 C 1038.701 144.417, 1044.247 150.525, 1046.340 153 C 1049.235 156.423, 1049.592 156.663, 1047.830 154 C 1046.556 152.075, 1041.011 145.967, 1035.507 140.426 L 1025.500 130.353 1034.017 139.426 M 1152 140.540 C 1152 140.837, 1152.967 142.974, 1154.148 145.290 C 1155.329 147.605, 1158.474 154.900, 1161.135 161.500 C 1163.797 168.100, 1165.981 172.928, 1165.988 172.228 C 1166.013 169.597, 1153.618 140, 1152.490 140 C 1152.221 140, 1152 140.243, 1152 140.540 M 1063.565 181.434 C 1065.454 185.523, 1067 189.322, 1067 189.875 C 1067 190.429, 1067.455 191.163, 1068.011 191.507 C 1069.127 192.196, 1066.136 184.148, 1062.975 177.951 C 1059.543 171.224, 1059.946 173.601, 1063.565 181.434 M 1166.463 175.402 C 1166.788 176.449, 1167.776 180.178, 1168.658 183.689 C 1169.540 187.199, 1170.437 189.897, 1170.651 189.682 C 1171.344 188.990, 1168.807 178.579, 1167.317 176 C 1166.491 174.570, 1166.126 174.314, 1166.463 175.402 M 1171.160 191.500 C 1171.139 192.050, 1171.993 196.550, 1173.057 201.500 C 1174.626 208.791, 1174.902 209.456, 1174.512 205 C 1174.091 200.202, 1171.262 188.808, 1171.160 191.500 M 1069.099 193.392 C 1068.933 194.889, 1073.110 208.223, 1073.593 207.740 C 1073.842 207.491, 1072.954 203.961, 1071.621 199.894 C 1070.288 195.827, 1069.153 192.901, 1069.099 193.392 M 1075.194 215.500 C 1075.170 216.600, 1075.738 221.100, 1076.455 225.500 C 1077.203 230.082, 1077.792 232.004, 1077.834 230 C 1077.874 228.075, 1077.306 223.575, 1076.573 220 C 1075.839 216.425, 1075.219 214.400, 1075.194 215.500 M 1176.551 224.500 C 1177.217 232.654, 1177.243 263.320, 1176.593 272.250 C 1176.100 279.022, 1176.137 279.203, 1177.156 275 C 1178.619 268.963, 1178.645 228.808, 1177.190 223 L 1176.062 218.500 1176.551 224.500 M 1075.632 274.615 C 1074.677 281.003, 1074.094 286.427, 1074.336 286.669 C 1074.845 287.178, 1076.914 275.935, 1077.725 268.250 C 1078.730 258.740, 1077.401 262.778, 1075.632 274.615 M 1071 295 C 1069.822 298.955, 1069.044 302.378, 1069.272 302.605 C 1069.499 302.832, 1070.656 299.789, 1071.842 295.842 C 1073.029 291.895, 1073.806 288.473, 1073.571 288.237 C 1073.335 288.001, 1072.178 291.045, 1071 295 M 1173.208 295.750 C 1172.529 300.012, 1171.759 304.625, 1171.497 306 C 1171.236 307.375, 1171.673 306.552, 1172.470 304.172 C 1173.895 299.913, 1175.648 288, 1174.850 288 C 1174.625 288, 1173.886 291.488, 1173.208 295.750 M 1066.067 309.067 C 1064.853 311.887, 1064.056 314.389, 1064.294 314.628 C 1064.533 314.866, 1065.720 312.753, 1066.933 309.933 C 1068.147 307.113, 1068.944 304.611, 1068.706 304.372 C 1068.467 304.134, 1067.280 306.247, 1066.067 309.067 M 1169.527 312.750 C 1169.145 314.813, 1167.237 321.450, 1165.287 327.500 C 1160.528 342.267, 1160.654 341.802, 1161.944 339.804 C 1164.618 335.662, 1172.196 309, 1170.699 309 C 1170.437 309, 1169.910 310.688, 1169.527 312.750 M 1061.268 319.606 C 1055.289 332.807, 1043.280 348.962, 1029.079 362.905 C 1023.286 368.593, 1021.575 370.632, 1024.749 368.063 C 1032.589 361.719, 1044.288 348.727, 1050.863 339.065 C 1058.012 328.558, 1064.437 317.104, 1063.633 316.299 C 1063.304 315.971, 1062.240 317.459, 1061.268 319.606 M 1157.588 348.750 C 1154.105 356.981, 1144.378 375.735, 1139.476 383.670 C 1137.496 386.877, 1136.812 388.427, 1137.957 387.116 C 1143.213 381.094, 1162.999 342, 1160.790 342 C 1160.600 342, 1159.160 345.038, 1157.588 348.750 M 1011.821 376.825 C 1005.322 381.374, 1001.915 384.203, 1005 382.486 C 1008.559 380.507, 1017.929 373.924, 1018.497 373.005 C 1019.395 371.552, 1019.167 371.682, 1011.821 376.825 M 1129.231 398.250 C 1125.929 402.788, 1119.802 410.216, 1115.614 414.757 C 1111.426 419.299, 1108 423.326, 1108 423.707 C 1108 424.088, 1108.386 423.972, 1108.859 423.450 C 1109.331 422.928, 1112.745 419.159, 1116.447 415.075 C 1124.884 405.767, 1136.974 390, 1135.676 390 C 1135.432 390, 1132.532 393.712, 1129.231 398.250 M 952.172 401.207 C 949.242 401.741, 947.051 402.385, 947.305 402.638 C 947.829 403.163, 961 401.007, 961 400.397 C 961 399.839, 958.357 400.082, 952.172 401.207 M 1058.151 659.750 C 1062.550 666.851, 1065.129 670.213, 1062.971 666.032 C 1060.958 662.135, 1054.989 653, 1054.454 653 C 1054.187 653, 1055.851 656.038, 1058.151 659.750 M 1127.494 771.095 C 1130.563 776.463, 1159.511 822.700, 1160.303 823.500 C 1160.959 824.162, 1161.025 823.993, 1160.499 823 C 1159.154 820.459, 1140.957 790.882, 1136.504 784 C 1134.191 780.425, 1131.560 776.066, 1130.657 774.313 C 1129.753 772.561, 1128.491 770.804, 1127.853 770.409 C 1127.071 769.926, 1126.954 770.150, 1127.494 771.095 M 1172.320 843 C 1173.112 844.375, 1178.171 852.700, 1183.564 861.500 C 1191.597 874.608, 1202 893.334, 1202 894.687 C 1202 894.859, 1200.650 895, 1199 895 C 1197.350 895, 1196 895.436, 1196 895.969 C 1196 896.524, 1190.766 897.078, 1183.750 897.266 C 1175.553 897.485, 1177.097 897.578, 1188.418 897.546 C 1199.012 897.517, 1205.462 897.118, 1205.675 896.478 C 1205.862 895.916, 1204.549 893.157, 1202.757 890.348 C 1199.653 885.480, 1193.900 876.302, 1187.600 866.166 C 1186.005 863.600, 1183.706 859.925, 1182.491 858 C 1181.276 856.075, 1178.981 852.342, 1177.391 849.705 C 1175.801 847.068, 1173.686 843.918, 1172.691 842.705 L 1170.881 840.500 1172.320 843 M 31.980 952.022 C 24.942 959.829, 9.379 973.760, 3.663 977.369 C 2.103 978.354, 1.079 979.412, 1.387 979.720 C 2.883 981.216, 24.700 961.889, 35.216 949.750 C 42.682 941.133, 40.270 942.826, 31.980 952.022 M 117.837 998.250 C 116.572 1000.038, 112.647 1004.823, 109.115 1008.885 C 105.582 1012.946, 103.148 1016.096, 103.706 1015.885 C 105.487 1015.209, 121.919 995, 120.687 995 C 120.384 995, 119.102 996.462, 117.837 998.250 M 90.500 1028.723 C 84.324 1034.687, 82.570 1036.675, 86.500 1033.256 C 93.388 1027.264, 102.855 1017.952, 101.958 1018.051 C 101.706 1018.078, 96.550 1022.881, 90.500 1028.723 M 28.109 1027.750 C 33.611 1036.829, 35.062 1039, 35.628 1039 C 35.959 1039, 35.567 1037.987, 34.758 1036.750 C 33.948 1035.513, 31.833 1032.138, 30.057 1029.250 C 28.281 1026.362, 26.605 1024, 26.333 1024 C 26.060 1024, 26.860 1025.688, 28.109 1027.750 M 38.128 1043.750 C 44.685 1054.484, 49.201 1061, 50.084 1061 C 51.982 1061, 71.177 1047.173, 72.626 1044.761 C 73.199 1043.807, 73.033 1043.763, 71.942 1044.580 C 61.866 1052.124, 57.902 1054.813, 54.699 1056.278 C 51.083 1057.932, 50.778 1057.931, 48.432 1056.258 C 47.076 1055.291, 43.902 1051.237, 41.380 1047.250 C 38.857 1043.263, 36.578 1040, 36.315 1040 C 36.052 1040, 36.868 1041.688, 38.128 1043.750" stroke="none" fill="#9fb4c4" fill-rule="evenodd"/><path d="M 76.676 0.657 C 76.304 1.029, 75.988 191.271, 75.974 423.417 C 75.958 686.381, 75.585 849.235, 74.985 855.408 C 74.044 865.086, 71.336 878.471, 68.290 888.500 C 67.455 891.250, 66.686 894.049, 66.582 894.721 C 66.477 895.393, 66.078 896.255, 65.696 896.638 C 65.313 897.020, 65 897.976, 65 898.761 C 65 900.690, 52.274 926.869, 50.450 928.693 C 49.652 929.491, 49 930.543, 49 931.032 C 49 931.522, 48.015 932.840, 46.811 933.961 C 45.608 935.082, 45.045 936.007, 45.561 936.015 C 46.085 936.024, 46.054 936.356, 45.491 936.765 C 44.936 937.169, 43.376 939.154, 42.023 941.175 C 40.671 943.196, 39.143 944.588, 38.628 944.270 C 38.113 943.952, 38.020 944.223, 38.422 944.874 C 39.349 946.373, 13.551 972.169, 6.276 977.018 C 3.402 978.933, 1.040 981.040, 1.026 981.699 C 0.980 983.817, 45.401 1053.781, 48.152 1055.925 C 50.729 1057.933, 50.912 1057.942, 54.695 1056.245 C 59.277 1054.190, 70.990 1045.775, 79.616 1038.338 C 82.980 1035.438, 86.018 1033.276, 86.366 1033.533 C 86.715 1033.790, 86.830 1033.755, 86.622 1033.455 C 86.413 1033.155, 88.943 1030.343, 92.243 1027.205 C 95.543 1024.067, 102.275 1016.775, 107.203 1011 C 112.131 1005.225, 117.408 999.044, 118.929 997.264 C 120.450 995.484, 121.474 993.807, 121.204 993.538 C 120.934 993.268, 121.453 992.763, 122.357 992.417 C 123.261 992.070, 124 991.345, 124 990.806 C 124 989.669, 130.138 980.661, 131.250 980.167 C 131.662 979.983, 132 979.196, 132 978.417 C 132 977.637, 132.450 977, 133 977 C 133.550 977, 134 976.395, 134 975.656 C 134 974.916, 135.099 973.032, 136.443 971.468 C 137.787 969.904, 138.709 968.339, 138.493 967.989 C 138.277 967.639, 139.641 965.186, 141.523 962.538 C 143.406 959.890, 144.707 957.335, 144.414 956.861 C 144.122 956.388, 144.434 956, 145.108 956 C 145.782 956, 146.047 955.713, 145.696 955.363 C 145.346 955.012, 145.946 953.480, 147.030 951.959 C 148.113 950.437, 149 948.782, 149 948.283 C 149 947.783, 150.181 944.928, 151.624 941.937 C 153.067 938.947, 154.383 935.825, 154.548 935 C 154.712 934.175, 154.938 933.388, 155.048 933.250 C 155.159 933.112, 155.325 932.663, 155.417 932.250 C 155.509 931.837, 156.371 930.024, 157.333 928.221 C 158.295 926.417, 158.812 924.504, 158.482 923.971 C 158.152 923.437, 158.344 923, 158.910 923 C 159.475 923, 159.678 922.325, 159.362 921.500 C 159.036 920.651, 159.338 920, 160.060 920 C 160.760 920, 161.059 919.726, 160.724 919.391 C 160.389 919.056, 160.983 916.581, 162.043 913.891 C 163.103 911.201, 163.697 909, 163.363 909 C 163.029 909, 163.299 908.345, 163.964 907.544 C 164.628 906.743, 164.901 905.649, 164.570 905.113 C 164.238 904.577, 164.425 903.856, 164.984 903.510 C 165.543 903.165, 166 901.840, 166 900.567 C 166 899.293, 166.689 896.300, 167.530 893.914 C 168.372 891.529, 169.253 887.535, 169.488 885.039 C 169.723 882.542, 170.118 879.375, 170.365 878 C 174.187 856.695, 174.051 874.694, 173.769 427 L 173.500 0.500 125.426 0.241 C 98.986 0.098, 77.048 0.285, 76.676 0.657 M 369 448.383 C 369 856.345, 369.143 896.841, 370.582 897.393 C 371.452 897.727, 492.551 898, 639.690 898 L 907.217 898 906.619 895.618 C 906.290 894.307, 904.221 890.370, 902.021 886.868 C 899.821 883.365, 897.101 878.925, 895.977 877 C 894.852 875.075, 892.633 871.475, 891.045 869 C 889.457 866.525, 885.759 860.532, 882.829 855.683 C 879.898 850.834, 876.825 845.792, 876 844.479 C 875.175 843.166, 872.375 838.584, 869.778 834.296 C 867.181 830.008, 861.770 821.325, 857.754 815 L 850.453 803.500 657.977 803.500 L 465.500 803.500 465.500 402 L 465.500 0.500 417.250 0.240 L 369 -0.019 369 448.383 M 661.181 1.282 C 659.422 3.401, 660.015 91.417, 661.800 93.201 C 662.852 94.252, 689.517 94.546, 801.300 94.739 C 877.310 94.870, 941.525 95.194, 944 95.459 C 946.475 95.724, 950.975 96.433, 954 97.035 C 957.025 97.636, 960.954 98.328, 962.731 98.572 C 964.508 98.815, 968.333 99.955, 971.231 101.106 C 974.129 102.256, 977.625 103.394, 979 103.634 C 983.529 104.426, 1004.105 114.963, 1013.387 121.244 C 1025.194 129.234, 1044.634 148.685, 1052.303 160.182 C 1064.295 178.160, 1072.631 198.436, 1076.690 219.500 C 1079.084 231.924, 1079.083 263.763, 1076.688 276.600 C 1068.659 319.637, 1043.746 357.499, 1008.500 380.233 C 1000.816 385.190, 986.048 392.838, 983.264 393.303 C 982.294 393.465, 980.545 394.124, 979.377 394.766 C 975.469 396.917, 955.722 401.996, 949.173 402.534 C 945.613 402.827, 942.334 403.294, 941.886 403.570 C 941.438 403.847, 878.224 404.049, 801.409 404.020 C 698.321 403.980, 661.386 404.265, 660.373 405.106 C 659.246 406.041, 659.003 414.325, 659.015 451.372 C 659.024 476.193, 659.385 497.058, 659.818 497.740 C 660.436 498.713, 681.565 498.987, 757.829 499.010 L 855.051 499.039 856.711 502.519 C 857.624 504.434, 858.669 506, 859.033 506 C 859.398 506, 860.508 507.800, 861.500 510 C 862.492 512.200, 863.685 514, 864.152 514 C 864.618 514, 865 514.613, 865 515.362 C 865 516.112, 866.350 518.424, 868 520.500 C 869.650 522.576, 871 524.818, 871 525.483 C 871 526.147, 871.900 527.505, 873 528.500 C 874.100 529.495, 875 530.853, 875 531.517 C 875 532.182, 876.350 534.424, 878 536.500 C 879.650 538.576, 881 540.818, 881 541.483 C 881 542.147, 881.889 543.494, 882.974 544.477 C 884.060 545.460, 885.247 547.217, 885.611 548.382 C 885.976 549.547, 887.225 551.681, 888.387 553.124 C 890.682 555.974, 893.961 561.665, 893.880 562.658 C 893.852 562.998, 894.255 563.552, 894.775 563.888 C 895.295 564.225, 896.520 566.075, 897.498 568 C 898.475 569.925, 901.462 574.771, 904.137 578.769 C 906.812 582.767, 909 586.480, 909 587.019 C 909 587.559, 909.450 588, 910 588 C 910.550 588, 911 588.675, 911 589.500 C 911 590.325, 911.420 591, 911.933 591 C 912.446 591, 913.176 591.978, 913.555 593.173 C 913.934 594.368, 915.030 596.189, 915.990 597.219 C 916.950 598.250, 918.582 600.759, 919.617 602.796 C 920.653 604.833, 921.837 606.650, 922.250 606.833 C 922.663 607.017, 923 607.772, 923 608.512 C 923 609.252, 923.604 610.461, 924.342 611.199 C 925.080 611.937, 926.266 613.629, 926.977 614.958 C 927.689 616.287, 928.669 617.852, 929.156 618.437 C 930.620 620.196, 937.799 631.710, 939.588 635.171 C 940.507 636.948, 941.876 639.019, 942.630 639.773 C 943.383 640.526, 944 641.731, 944 642.449 C 944 643.167, 944.710 644.344, 945.578 645.065 C 946.446 645.785, 948.283 648.599, 949.661 651.319 C 951.039 654.038, 952.917 657.080, 953.833 658.080 C 954.750 659.079, 957.717 663.632, 960.428 668.198 C 963.138 672.764, 967.751 680.170, 970.678 684.655 C 973.605 689.140, 976 693.096, 976 693.447 C 976 693.797, 976.458 694.628, 977.018 695.292 C 979.730 698.508, 983.803 705.510, 983.370 706.211 C 983.102 706.645, 983.309 707, 983.830 707 C 984.352 707, 988.031 712.288, 992.006 718.750 C 995.981 725.212, 1000.156 731.821, 1001.283 733.435 C 1002.411 735.049, 1003.333 736.962, 1003.333 737.685 C 1003.333 738.408, 1003.686 739, 1004.118 739 C 1004.549 739, 1006.580 742.038, 1008.630 745.750 C 1010.681 749.463, 1014.528 755.825, 1017.179 759.889 C 1019.831 763.952, 1022 767.492, 1022 767.755 C 1022 768.017, 1023.575 770.378, 1025.500 773 C 1027.425 775.622, 1029 778.040, 1029 778.373 C 1029 778.706, 1030.799 781.571, 1032.999 784.739 C 1035.198 787.908, 1036.998 791.063, 1036.999 791.750 C 1036.999 792.438, 1037.450 793, 1038 793 C 1038.550 793, 1039 793.675, 1039 794.500 C 1039 795.325, 1039.373 796, 1039.829 796 C 1040.285 796, 1041.712 798.250, 1043 801 C 1044.288 803.750, 1045.613 806, 1045.944 806 C 1046.274 806, 1047.431 807.688, 1048.513 809.750 C 1049.595 811.813, 1050.935 813.831, 1051.490 814.235 C 1052.155 814.719, 1052.159 814.980, 1051.500 815 C 1050.836 815.020, 1050.837 815.277, 1051.503 815.765 C 1052.888 816.780, 1057.604 823.915, 1059.093 827.250 C 1059.768 828.763, 1060.699 830, 1061.161 830 C 1061.622 830, 1062 830.373, 1062 830.828 C 1062 831.284, 1064.138 834.944, 1066.750 838.961 C 1069.362 842.979, 1071.501 846.544, 1071.502 846.883 C 1071.502 847.222, 1072.627 849.066, 1074.002 850.979 C 1077.273 855.534, 1078.825 858.106, 1079.601 860.250 C 1079.949 861.213, 1080.631 862, 1081.117 862 C 1081.602 862, 1081.919 862.337, 1081.820 862.750 C 1081.565 863.809, 1085.343 869.986, 1086.250 869.994 C 1086.662 869.997, 1087 870.480, 1087 871.067 C 1087 871.653, 1088.178 873.678, 1089.619 875.567 C 1091.059 877.455, 1091.846 879.007, 1091.369 879.015 C 1090.891 879.024, 1090.972 879.361, 1091.548 879.765 C 1092.917 880.725, 1097.297 887, 1096.598 887 C 1096.302 887, 1097.059 888.519, 1098.280 890.376 C 1099.501 892.233, 1101.001 894.595, 1101.614 895.626 C 1102.679 897.418, 1104.748 897.494, 1149.076 897.362 C 1182.095 897.264, 1195.532 896.905, 1195.796 896.112 C 1196 895.501, 1197.479 895, 1199.083 895 C 1200.688 895, 1202 894.859, 1202 894.687 C 1202 894.515, 1199.980 890.414, 1197.510 885.575 C 1195.041 880.735, 1193.310 876.307, 1193.665 875.733 C 1194.019 875.160, 1193.842 874.979, 1193.272 875.332 C 1192.691 875.691, 1190.055 872.351, 1187.278 867.736 C 1184.552 863.206, 1178.685 853.577, 1174.241 846.337 C 1169.796 839.098, 1166.423 832.910, 1166.746 832.587 C 1167.069 832.264, 1166.853 832, 1166.265 832 C 1165.067 832, 1160.724 825.185, 1160.689 823.250 C 1160.677 822.562, 1160.443 822.224, 1160.169 822.498 C 1159.365 823.302, 1155.113 815.634, 1155.745 814.518 C 1156.062 813.958, 1155.960 813.826, 1155.520 814.224 C 1154.379 815.255, 1123.569 765.943, 1124.535 764.632 C 1124.791 764.284, 1124.701 764.224, 1124.336 764.498 C 1123.372 765.220, 1119.061 757.726, 1119.745 756.518 C 1120.062 755.958, 1119.968 755.818, 1119.537 756.207 C 1118.822 756.852, 1100.084 727.909, 1099.676 725.530 C 1099.579 724.968, 1098.983 724.056, 1098.351 723.504 C 1096.846 722.188, 1072.083 682.397, 1071.753 680.764 C 1071.614 680.073, 1070.980 679.056, 1070.345 678.504 C 1069.710 677.952, 1056.037 656.350, 1039.961 630.500 C 1023.885 604.650, 1004.420 573.375, 996.706 561 C 988.992 548.625, 982.678 537.938, 982.674 537.250 C 982.670 536.563, 982.443 536.224, 982.169 536.498 C 981.365 537.302, 977.113 529.634, 977.745 528.518 C 978.062 527.958, 977.965 527.821, 977.530 528.213 C 977.095 528.606, 973.362 523.431, 969.234 516.713 C 965.105 509.996, 960.411 502.587, 958.802 500.250 L 955.876 496 958.188 495.996 C 961.882 495.990, 991.693 489.492, 1001 486.664 C 1021.342 480.484, 1042.996 470.848, 1060.500 460.189 C 1116.515 426.078, 1154.390 374.403, 1169.996 310.797 C 1175.823 287.048, 1177.987 263.239, 1176.848 235.423 C 1174.877 187.310, 1157.209 140.102, 1126.165 100 C 1117.116 88.312, 1097.529 68.419, 1085.500 58.703 C 1056.534 35.305, 1019.799 16.772, 986 8.505 C 982.425 7.631, 978.825 6.656, 978 6.338 C 977.175 6.021, 975.375 5.619, 974 5.445 C 972.625 5.270, 965.425 4.113, 958 2.873 C 944.516 0.620, 944.330 0.617, 803.417 0.255 C 683.923 -0.051, 662.157 0.106, 661.181 1.282" stroke="none" fill="#93abb3" fill-rule="evenodd"/></svg>