<svg xmlns="http://www.w3.org/2000/svg" width="666" height="375" viewBox="0 0 666 375" version="1.1"><path d="M 195.667 55.667 C 195.300 56.033, 195 106.508, 195 167.833 C 195 229.158, 195.235 279.099, 195.521 278.812 C 195.808 278.525, 196.039 228.293, 196.035 167.184 L 196.027 56.077 204.763 55.744 L 213.500 55.411 204.917 55.206 C 200.196 55.093, 196.033 55.300, 195.667 55.667 M 217.742 55.655 L 219.984 56.137 219.983 168.726 C 219.982 230.650, 220.213 281.546, 220.495 281.828 C 220.778 282.111, 220.894 231.302, 220.754 168.921 L 220.500 55.500 218 55.336 C 215.813 55.193, 215.781 55.233, 217.742 55.655 M 292.995 55.563 L 295.991 56.126 296.252 161.063 L 296.514 266 296.507 160.750 L 296.500 55.500 293.250 55.250 C 290.054 55.004, 290.050 55.009, 292.995 55.563 M 271.858 103.583 C 271.533 213.572, 271.518 268.180, 271.811 279.250 L 272.121 291 342.561 291 C 381.302 291, 413 290.728, 413 290.395 C 413 290.062, 411.650 287.790, 410 285.345 C 408.350 282.900, 407 280.542, 407 280.105 C 407 279.668, 406.100 278.495, 405 277.500 C 403.866 276.474, 403 276.190, 403 276.845 C 403 277.480, 403.417 278, 403.927 278 C 404.436 278, 405.474 279.237, 406.232 280.750 C 406.990 282.262, 408.425 284.738, 409.420 286.250 C 410.478 287.857, 410.767 289, 410.115 289 C 409.502 289, 408.993 288.438, 408.985 287.750 C 408.975 286.976, 408.690 286.881, 408.235 287.500 C 407.831 288.050, 406.825 288.671, 406 288.881 C 404.771 289.193, 293.918 289.368, 277.780 289.083 L 273.060 289 273.112 172.916 C 273.142 109.070, 272.903 56.570, 272.583 56.249 C 272.262 55.929, 271.936 77.229, 271.858 103.583" stroke="none" fill="#dcecf4" fill-rule="evenodd"/><path d="M 196.035 165.819 C 196.046 299.821, 196.607 294.710, 180.284 309.318 C 179.065 310.409, 178.301 311.678, 178.586 312.139 C 178.871 312.600, 178.361 312.692, 177.453 312.344 C 176.010 311.790, 175.965 311.972, 177.101 313.790 C 177.816 314.934, 178.837 315.601, 179.370 315.271 C 179.930 314.925, 180.070 315.375, 179.701 316.336 C 179.350 317.251, 179.499 318, 180.031 318 C 180.564 318, 180.910 318.338, 180.800 318.750 C 180.441 320.101, 184.655 326.012, 185.432 325.246 C 185.849 324.836, 186.035 325.400, 185.845 326.500 C 185.629 327.755, 185.994 328.398, 186.824 328.225 C 187.553 328.074, 187.920 328.321, 187.640 328.773 C 187.361 329.225, 187.516 330.217, 187.985 330.976 C 188.921 332.490, 197.908 326.574, 197.969 324.405 C 198.004 323.156, 202 319.268, 202 320.483 C 202 321.862, 208.161 313.652, 209.866 310 C 210.765 308.075, 211.782 306.275, 212.127 306 C 213.290 305.072, 217.818 292.541, 218.904 287.243 C 219.637 283.668, 219.982 245.828, 219.983 168.993 L 219.983 56 208.005 56 L 196.026 56 196.035 165.819 M 273.112 172.500 L 273.061 289 277.780 289.083 C 293.916 289.368, 404.771 289.193, 406 288.881 C 406.825 288.671, 407.831 288.050, 408.235 287.500 C 408.690 286.881, 408.975 286.976, 408.985 287.750 C 408.993 288.438, 409.502 289, 410.115 289 C 410.768 289, 410.483 287.861, 409.427 286.250 C 408.435 284.738, 407.063 282.420, 406.378 281.100 C 405.692 279.779, 404.764 278.429, 404.316 278.100 C 403.867 277.770, 402.784 276.150, 401.908 274.500 C 401.032 272.850, 399.761 271.624, 399.084 271.775 C 398.406 271.926, 398.057 271.701, 398.308 271.275 C 401.228 266.324, 400.582 266.258, 348.829 266.175 C 322.248 266.132, 299.488 266.076, 298.250 266.049 L 296 266 296 161 L 296 56 284.582 56 L 273.163 56 273.112 172.500 M 349 67.500 C 349 77.759, 349.189 79.008, 350.750 79.070 C 351.712 79.109, 368.250 79.278, 387.500 79.446 C 406.750 79.614, 423.625 80.026, 425 80.362 C 426.375 80.698, 428.850 81.276, 430.500 81.647 C 433.431 82.306, 444.170 88.755, 444.835 90.256 C 445.020 90.672, 445.652 90.715, 446.240 90.352 C 446.828 89.988, 447.060 90.098, 446.756 90.595 C 446.452 91.093, 447.567 93.075, 449.234 95 C 450.900 96.925, 451.910 97.868, 451.477 97.095 C 450.948 96.150, 451.074 95.928, 451.862 96.415 C 452.506 96.813, 452.792 97.527, 452.498 98.003 C 452.204 98.479, 452.854 100.585, 453.942 102.684 C 458.873 112.194, 458.662 129.154, 453.488 139.156 C 452.163 141.717, 451.263 144.767, 451.487 145.933 C 451.717 147.127, 451.474 147.793, 450.931 147.458 C 450.401 147.130, 450.266 146.330, 450.630 145.681 C 450.995 145.031, 448.865 146.943, 445.896 149.929 C 442.928 152.914, 440.620 155.748, 440.766 156.226 C 440.912 156.704, 440.462 156.982, 439.766 156.845 C 437.983 156.492, 430.895 159.020, 431.393 159.831 C 431.620 160.199, 430.161 160.620, 428.153 160.767 C 426.144 160.914, 424.388 161.364, 424.250 161.767 C 424.113 162.170, 407.126 162.377, 386.500 162.226 L 349 161.953 349 173.748 L 349 185.544 370.750 185.661 C 402.058 185.829, 401 185.763, 401 187.559 C 401 188.495, 401.468 188.829, 402.170 188.395 C 402.957 187.909, 403.131 188.217, 402.701 189.336 C 402.350 190.251, 402.499 191, 403.031 191 C 403.564 191, 403.897 191.337, 403.771 191.750 C 403.402 192.955, 407.293 198.937, 408.114 198.429 C 408.525 198.175, 409.187 198.494, 409.585 199.138 C 410.037 199.869, 409.876 200.041, 409.155 199.595 C 408.520 199.203, 408 199.359, 408 199.941 C 408 200.523, 408.351 201, 408.781 201 C 409.210 201, 410.087 202.391, 410.728 204.091 C 411.486 206.099, 412.318 206.921, 413.102 206.437 C 413.861 205.968, 414.049 206.112, 413.608 206.825 C 413.223 207.448, 414.728 210.700, 416.954 214.050 C 419.179 217.400, 421 220.537, 421 221.021 C 421 221.505, 421.643 222.260, 422.429 222.700 C 423.215 223.140, 423.937 223.950, 424.033 224.500 C 424.384 226.501, 429.216 234, 430.154 234 C 430.684 234, 430.882 234.382, 430.594 234.849 C 430.305 235.315, 430.963 236.657, 432.055 237.829 C 433.148 239.002, 434.003 240.082, 433.956 240.231 C 433.592 241.378, 435.427 243.854, 436.259 243.340 C 436.886 242.952, 437.011 243.174, 436.568 243.889 C 435.418 245.751, 438.687 250.038, 440.752 249.374 C 441.983 248.978, 442.126 249.081, 441.236 249.723 C 439.829 250.739, 442.459 257.453, 443.912 256.554 C 444.327 256.298, 444.667 256.633, 444.667 257.300 C 444.667 257.966, 445.948 260.534, 447.513 263.006 C 449.079 265.478, 450.856 268.400, 451.461 269.500 C 460.116 285.226, 464.362 288.673, 475.500 289.020 C 488.677 289.429, 489.250 289.335, 487.985 286.972 C 487.388 285.857, 486.519 285.179, 486.055 285.466 C 485.590 285.753, 484.943 285.293, 484.616 284.442 C 484.276 283.557, 484.445 283.157, 485.011 283.507 C 486.389 284.359, 486.246 283.411, 484.750 281.779 C 483.033 279.906, 481.191 276.955, 479.980 274.138 C 479.243 272.424, 478.405 271.922, 476.925 272.309 C 475.341 272.724, 475.126 272.553, 475.960 271.548 C 477.099 270.175, 476.376 267, 474.924 267 C 474.451 267, 474.322 266.325, 474.638 265.500 C 474.955 264.675, 474.716 263.944, 474.107 263.875 C 471.493 263.580, 471.125 263.454, 470.333 262.590 C 469.843 262.054, 470.058 262.002, 470.857 262.465 C 473.930 264.244, 467.998 253.317, 464.506 250.765 C 463.840 250.279, 463.838 250.015, 464.500 249.984 C 465.050 249.958, 464.626 249.276, 463.559 248.468 C 462.491 247.661, 461.954 247, 462.365 247 C 462.777 247, 462.330 245.674, 461.373 244.054 C 460.416 242.434, 459.153 241.381, 458.567 241.715 C 457.980 242.048, 457.826 241.960, 458.224 241.520 C 458.978 240.686, 456.514 235.616, 454.111 233.058 C 453.347 232.245, 452.061 229.997, 451.253 228.063 C 450.445 226.129, 448.595 223.471, 447.142 222.156 C 445.689 220.841, 445.107 220.097, 445.850 220.503 C 446.940 221.099, 446.981 220.833, 446.065 219.121 C 445.440 217.954, 444.548 217, 444.081 217 C 443.615 217, 442.986 216.055, 442.684 214.899 C 442.334 213.563, 441.690 213.073, 440.913 213.554 C 440.128 214.039, 439.948 213.892, 440.410 213.145 C 440.806 212.505, 440.201 210.799, 439.065 209.355 C 437.929 207.912, 437 206.344, 437 205.873 C 437 205.401, 434.300 200.805, 431 195.660 C 423.421 183.843, 423.499 183.514, 434 182.917 C 434.825 182.871, 436.175 182.571, 437 182.252 C 437.825 181.934, 438.725 181.612, 439 181.537 C 442.282 180.648, 443.927 179.690, 443.463 178.939 C 443.151 178.435, 443.594 178.291, 444.448 178.618 C 445.302 178.946, 446 178.716, 446 178.107 C 446 177.498, 446.337 177.053, 446.750 177.118 C 447.163 177.184, 447.837 177.127, 448.250 176.993 C 448.663 176.860, 449.337 176.668, 449.750 176.567 C 452.322 175.939, 458.003 171.530, 458.015 170.151 C 458.028 168.749, 458.170 168.721, 458.958 169.966 C 459.702 171.143, 460.089 170.896, 460.918 168.716 C 461.486 167.222, 462.524 166, 463.225 166 C 463.926 166, 465.817 164.349, 467.427 162.332 C 469.037 160.314, 469.712 158.997, 468.927 159.406 C 468.142 159.814, 468.740 159.176, 470.255 157.987 C 471.770 156.798, 472.786 155.462, 472.511 155.018 C 472.236 154.573, 472.731 153.934, 473.609 153.596 C 474.550 153.236, 474.964 152.348, 474.615 151.440 C 474.276 150.556, 474.446 150.157, 475.011 150.507 C 475.913 151.064, 476.386 149.470, 476.270 146.261 C 476.246 145.579, 476.577 145.239, 477.006 145.504 C 477.663 145.910, 478.847 142.953, 479.109 140.254 C 479.149 139.840, 479.755 138.128, 480.456 136.452 C 481.508 133.934, 482.257 126.510, 482.217 119 C 482.153 107.020, 477.972 92.795, 472.939 87.436 C 471.872 86.300, 471 84.789, 471 84.079 C 471 83.267, 470.360 83.032, 469.280 83.446 C 468.335 83.809, 467.867 83.800, 468.241 83.426 C 469.185 82.481, 466.120 76.808, 465.029 77.482 C 464.542 77.783, 463.885 77.212, 463.568 76.213 C 463.250 75.214, 461.205 73.295, 459.022 71.948 C 456.840 70.602, 455.042 69.174, 455.027 68.776 C 454.998 67.999, 449.243 64.779, 448.689 65.230 C 448.507 65.378, 447.544 64.687, 446.550 63.692 C 445.556 62.698, 444.158 62.109, 443.444 62.383 C 442.730 62.657, 441.655 62.289, 441.054 61.565 C 439.906 60.182, 435.507 58.923, 425.440 57.098 C 421.786 56.436, 405.409 56, 384.190 56 L 349 56 349 67.500" stroke="none" fill="#fafbfb" fill-rule="evenodd"/></svg>